<?xml version="1.0" encoding="UTF-8" standalone="no"?>
<svg
   xmlns:dc="http://purl.org/dc/elements/1.1/"
   xmlns:cc="http://creativecommons.org/ns#"
   xmlns:rdf="http://www.w3.org/1999/02/22-rdf-syntax-ns#"
   xmlns:svg="http://www.w3.org/2000/svg"
   xmlns="http://www.w3.org/2000/svg"
   xmlns:sodipodi="http://sodipodi.sourceforge.net/DTD/sodipodi-0.dtd"
   xmlns:inkscape="http://www.inkscape.org/namespaces/inkscape"
   version="1.0"
   width="32.000000pt"
   height="32.000000pt"
   viewBox="0 0 32.000000 32.000000"
   preserveAspectRatio="xMidYMid meet"
   id="svg2997"
   inkscape:version="0.48.5 r10040"
   sodipodi:docname="main_icon.svg">
  <defs
     id="defs3007" />
  <sodipodi:namedview
     pagecolor="#ffffff"
     bordercolor="#666666"
     borderopacity="1"
     objecttolerance="10"
     gridtolerance="10"
     guidetolerance="10"
     inkscape:pageopacity="0"
     inkscape:pageshadow="2"
     inkscape:window-width="1233"
     inkscape:window-height="815"
     id="namedview3005"
     showgrid="false"
     inkscape:zoom="9.9878832"
     inkscape:cx="5.5190757"
     inkscape:cy="16.199468"
     inkscape:window-x="364"
     inkscape:window-y="36"
     inkscape:window-maximized="0"
     inkscape:current-layer="svg2997" />
  <metadata
     id="metadata2999">
Created by potrace 1.11, written by Peter Selinger 2001-2013
<rdf:RDF>
  <cc:Work
     rdf:about="">
    <dc:format>image/svg+xml</dc:format>
    <dc:type
       rdf:resource="http://purl.org/dc/dcmitype/StillImage" />
  </cc:Work>
</rdf:RDF>
</metadata>
  <path
     style="fill:#ffffff;stroke:none;stroke-width:1px;stroke-linecap:butt;stroke-linejoin:miter;stroke-opacity:1"
     d="m 0.90109188,17.773068 c 0,0 -1.03946394,-3.503784 2.50303292,-4.705702 5.6067936,-1.902305 20.0332772,-2.679254 24.3294792,-4.3052163 1.827043,-0.6914721 2.197397,-4.2735776 2.302791,-4.9059445 0.200242,-1.2014557 2.202668,-0.7008492 2.803396,3.3040034 0.600728,4.0048524 -0.80097,8.9107974 0.500607,8.1098264 1.301577,-0.80097 1.951484,0.803135 2.002426,1.401699 0.400485,4.705701 2.503033,7.208734 3.304004,9.21116 1.133355,2.833384 -1.352794,5.223895 -2.102548,5.807037 -1.802184,1.401698 -11.054602,5.126384 -15.118319,5.706915 -2.803397,0.400485 -7.709341,1.601941 -9.91201,-0.70085 C 9.3112823,34.393206 9.7825474,29.384274 8.0097052,27.685078 2.7340308,22.628561 -0.20024264,16.471491 0.90109188,17.773068 z"
     id="path2993"
     inkscape:connector-curvature="0"
     transform="scale(0.8,0.8)"
     sodipodi:nodetypes="csssssssssssc" />
  <text
     xml:space="preserve"
     style="font-size:2.85809851px;font-style:normal;font-weight:normal;line-height:125%;letter-spacing:0px;word-spacing:0px;fill:#000000;fill-opacity:1;stroke:none;font-family:Sans"
     x="3.2685204"
     y="16.651899"
     id="text3801"
     sodipodi:linespacing="125%"
     transform="matrix(0.94238709,-0.18117907,0.13585769,1.0350157,0,0)"><tspan
       sodipodi:role="line"
       id="tspan3803"
       x="3.2685204"
       y="16.651899"
       style="fill:#cccccc">CPX DE SSE</tspan><tspan
       sodipodi:role="line"
       x="3.2685204"
       y="20.224522"
       style="fill:#cccccc"
       id="tspan3813">  0 = NONIQ</tspan><tspan
       sodipodi:role="line"
       x="3.2685204"
       y="23.797146"
       style="fill:#cccccc"
       id="tspan3819">    IIXFV BLASR</tspan><tspan
       sodipodi:role="line"
       x="3.2685204"
       y="27.369768"
       style="fill:#cccccc"
       id="tspan3821">      =</tspan><tspan
       sodipodi:role="line"
       x="3.2685204"
       y="30.942392"
       style="fill:#cccccc"
       id="tspan3811" /></text>
  <path
     style="fill:#ffff00;stroke:none;stroke-width:1px;stroke-linecap:butt;stroke-linejoin:miter;stroke-opacity:1"
     d="m 28.834938,8.1614221 c 0,0 -5.706914,21.9265679 -12.114679,13.4162559 -6.407764,-8.510311 -6.708128,-9.010918 -6.9083702,-5.807036 -0.2002426,3.203882 0.4004852,10.612859 3.9047312,13.616499 3.504246,3.003639 6.007279,2.703275 7.60922,2.803396 1.601941,0.100122 4.60558,-2.503032 7.208735,-1.902304 2.603154,0.600727 6.007279,-0.100121 6.007279,-1.802184 0,-1.702062 -0.646574,-4.726981 -1.101334,-5.807037 C 31.838579,18.874402 33.440519,7.2603303 32.439306,6.1589958 31.438093,5.0576614 30.737243,1.3531727 30.436879,2.8549925 30.136516,4.3568122 30.336758,1.4532941 28.834938,8.1614221 z"
     id="path3011"
     inkscape:connector-curvature="0"
     transform="scale(0.8,0.8)"
     sodipodi:nodetypes="csssssssssc" />
  <path
     style="fill:#ff0000;stroke:#ffb700;stroke-width:1.20000005;stroke-linecap:round;stroke-linejoin:round;stroke-miterlimit:4;stroke-opacity:1;stroke-dasharray:none"
     d="m 17.541254,25.873961 c 0,0 -4.405337,0.49021 -6.167472,-5.065507 -1.7621356,-5.555716 -0.867807,-3.441233 1.922328,-0.571912 4.405339,4.530365 1.694452,-0.400484 2.402912,0.47256 1.041261,1.283155 4.495225,2.396369 5.4466,0.08331 1.254067,-3.048995 2.909039,-11.7372492 2.397218,-7.643422 -0.494662,3.956584 -0.394793,5.698627 0.406178,7.25096 0.800971,1.552333 0.720874,0.571912 1.281553,0 0.560679,-0.571912 1.451465,-2.338402 1.922329,1.634034 0.07694,0.64907 0.800971,0.74334 0.0801,1.715736 -0.625557,0.843826 -3.444174,0.735316 -5.126212,0.817017 -1.682038,0.0817 -4.565532,1.307228 -4.565534,1.307224 z"
     id="path3799"
     inkscape:connector-curvature="0"
     sodipodi:nodetypes="cssssssssssc" />
  <g
     transform="translate(0.000000,32.000000) scale(0.100000,-0.100000)"
     fill="#000000"
     stroke="none"
     id="g3001">
    <path
       d="m 237,304 c -4,-4 -7,-15 -7,-25 0,-25 -6,-27 -103,-38 C 79,235 31,226 20,220 -12,203 -5,162 35,123 54,104 70,80 70,69 70,58 75,40 80,29 95,1 165,4 245,36 c 73,29 89,55 61,99 -9,13 -16,33 -16,44 0,11 -4,23 -10,26 -5,3 -10,21 -10,39 0,34 -21,72 -33,60 z m 20,-100 c -3,-34 -1.56637,-39.57522 5,-60 7,-5 2.20354,0 3.16814,17.39823 -0.60177,10.86726 1.39823,19.90265 5.83186,24.60177 4.00156,4.24117 9,-4 9,-16 0,-11 7,-31 15,-44 C 318,91 305,74 234,46 129,4 80,14 80,79 c 0,10 -16,34 -35,52 -19,19 -35,43 -35,55 0,18 9,24 47,33 27,6 76,12 111,13 61,3 64,4 69,32 10,49 26,1 20,-60 z"
       id="path3003"
       inkscape:connector-curvature="0"
       sodipodi:nodetypes="sscccscccscsscccssccscscccc" />
  </g>
</svg>
